<?xml version="1.0" encoding="UTF-8"?>
<svg width="183px" height="74px" viewBox="0 0 183 74" version="1.1" xmlns="http://www.w3.org/2000/svg" xmlns:xlink="http://www.w3.org/1999/xlink">
    <!-- Generator: Sketch 53.2 (72643) - https://sketchapp.com -->
    <title>Artboard</title>
    <desc>Created with Sketch.</desc>
    <g id="Artboard" stroke="none" stroke-width="1" fill="none" fill-rule="evenodd">
        <g id="group">
            <path d="M33.6455946,61.7284427 C31.8929665,61.7284427 31.2371247,58.5891197 30.945189,58.5891197 C30.5802693,58.5891197 29.777446,62.6032362 29.9963978,62.6032362 C31.3101086,62.531266 32.4778516,63.626025 32.4778516,65.0127198 C32.4778516,65.5955776 32.1849022,66.0344949 31.8929665,66.6183664 L28.609703,72.4570813 C28.2447833,72.9679688 27.9528476,73.989744 26.7121207,73.989744 C25.4703801,73.989744 25.1064741,72.9679688 24.8145383,72.4570813 L21.5302612,66.6183664 C21.2383254,66.0344949 20.9463897,65.5955776 20.9463897,65.0127198 C20.9463897,63.626025 22.1141327,62.531266 23.5008275,62.531266 L24.5955865,62.531266 C24.5955865,62.531266 21.8951809,60.1227961 21.5302612,60.1227961 C21.1643278,60.1227961 21.1643278,61.7284427 19.6326788,61.7284427 C18.8298555,61.7284427 18.1730001,61.0715872 17.7350965,60.3417479 L14.0858997,53.8461776 C13.9399318,53.5552555 13.5750121,53.0433543 13.5750121,51.8745976 C13.5750121,50.4889165 14.6697712,49.9780289 16.1294499,49.9780289 C16.3473881,49.9780289 15.5445648,46.1828642 15.1806587,46.1828642 C14.888723,46.1828642 14.2318676,49.3211735 12.4802531,49.3211735 C11.8963816,49.3211735 11.5314619,49.1022217 11.3125101,48.810286 L7.15242575,41.4378947 C7.00645788,41.0739887 6.71452213,40.5631012 6.71452213,39.9062457 C6.71452213,38.446567 7.73528358,37.6437437 8.97702416,37.6437437 L9.70686352,37.6437437 C10.0717832,37.6437437 7.80928118,35.3092714 7.4443615,35.3092714 C7.00645788,35.3092714 7.07944182,36.9868883 5.54677915,36.9868883 C5.10887554,36.9868883 4.67097192,36.7679365 4.37903617,36.4760007 L0.58387149,29.6144971 C0.217938143,29.0316392 3.51718654e-12,28.5937356 3.51718654e-12,28.0098641 C3.51718654e-12,26.6221557 1.09475904,25.4554264 2.48145383,25.4554264 L8.10121692,25.4554264 L8.90404022,25.5284103 C10.290735,25.5284103 11.3854941,26.6221557 11.3854941,28.0828481 C11.3854941,28.8856714 10.8016226,29.6144971 10.8016226,29.9064328 C10.8016226,30.2723661 14.1588836,29.250591 14.1588836,28.9586553 C14.1588836,28.8126874 13.6469824,28.3017999 13.6469824,26.988089 C13.6469824,25.5284103 14.7417415,25.0175227 16.2024338,25.0175227 C16.4213857,25.0175227 15.5445648,21.2223581 15.252629,21.2223581 C14.888723,21.2223581 14.3048515,24.4336512 12.553237,24.4336512 C11.6044459,24.4336512 11.2385125,23.7767958 10.8016226,22.9739725 L7.51734543,17.0632874 C7.22439602,16.5513861 6.93246028,16.1134825 6.93246028,15.4566271 C6.93246028,14.0689186 8.10121692,12.9741596 9.48791171,12.9741596 L15.983482,12.9741596 C17.3701768,12.9741596 18.4639222,14.0689186 18.4639222,15.4566271 C18.4639222,15.8215468 18.3919519,16.0404986 18.318968,16.3324343 L21.4572773,17.1352576 C21.0923576,16.5513861 20.8734058,16.1134825 20.8734058,15.4566271 C20.8734058,14.0689186 21.9671511,12.9741596 23.3548596,12.9741596 L29.8504299,12.9741596 C31.2371247,12.9741596 32.3318838,14.0689186 32.3318838,15.4566271 C32.3318838,15.8215468 32.2588998,16.0404986 32.1849022,16.3324343 L35.3242251,17.1352576 C34.9593055,16.5513861 34.7403536,16.1134825 34.7403536,15.4566271 C34.7403536,14.0689186 35.8351127,12.9741596 37.2218075,12.9741596 L43.7163641,12.9741596 C45.1040726,12.9741596 46.1988316,14.0689186 46.1988316,15.4566271 C46.1988316,15.8215468 46.124834,16.0404986 46.0528638,16.3324343 L49.191173,17.1352576 C48.8262533,16.5513861 48.6073015,16.1134825 48.6073015,15.4566271 C48.6073015,14.0689186 49.7020606,12.9741596 51.0887554,12.9741596 L57.5113418,12.9741596 C58.8980365,12.9741596 59.9927956,14.0689186 59.9927956,15.4566271 C59.9927956,16.1134825 59.7738438,16.5513861 59.481908,17.0632874 C59.481908,17.0632874 57.4393715,20.7834408 55.6867434,23.7027982 C55.4677915,24.2146994 54.9558903,24.4336512 54.4450028,24.4336512 C52.8393562,24.4336512 52.9133538,22.8280047 52.5474204,22.8280047 C52.1105305,22.8280047 49.6290766,25.5284103 49.9939963,25.5284103 L50.7968196,25.5284103 C52.1835144,25.5284103 53.2052895,26.6961533 53.2052895,28.0828481 C53.2052895,28.8856714 52.694402,29.6144971 52.694402,29.9064328 C52.694402,30.3453501 55.9786791,29.250591 55.9786791,28.9586553 C55.9786791,28.8856714 55.6137594,28.4477677 55.5407755,27.424979 C55.7587136,26.3312336 56.7085185,25.4554264 57.9492454,25.4554264 L64.3718318,25.4554264 C65.7585266,25.4554264 66.9262695,26.6221557 66.9262695,28.0098641 C66.9262695,28.5937356 66.6343338,29.0316392 66.342398,29.6144971 C66.342398,29.6144971 64.5177996,33.0457557 62.4732358,36.6219686 C62.1093297,37.2058401 61.7454237,37.6437437 60.9415868,37.6437437 C59.1899723,37.6437437 58.6061008,34.5064481 58.3141651,34.5064481 C57.9492454,34.5064481 57.0734381,38.2266015 57.2923899,38.2266015 C58.7520687,38.2266015 59.9198117,38.7374891 59.9198117,40.4901172 C59.9198117,40.8550369 59.7008598,41.5118923 59.4089241,42.0227799 C58.023243,44.5042337 55.9786791,48.2993984 55.9786791,48.2993984 C55.6137594,48.8832699 55.0298879,49.4661277 54.3730325,49.4661277 C52.8393562,49.4661277 52.9133538,47.8604811 52.4754502,47.8604811 C52.1105305,47.8604811 49.191173,50.5608868 49.9939963,50.5608868 C51.5996429,50.5608868 53.2052895,50.6348844 53.2052895,52.6054506 C53.2052895,53.33529 52.621418,54.3580788 52.4754502,54.7219848 L49.0452052,60.8526354 C48.7532694,61.2895254 48.3153658,61.7284427 47.5855264,61.7284427 C45.8328983,61.7284427 45.2500405,58.5891197 44.9581047,58.5891197 C44.593185,58.5891197 43.7163641,62.6032362 43.9363296,62.6032362 C45.2500405,62.531266 46.3447995,63.626025 46.3447995,65.0127198 C46.3447995,65.5955776 46.124834,66.0344949 45.760928,66.6183664 L42.4766509,72.4570813 C42.1847151,72.9679688 41.8187818,73.989744 40.6520525,73.989744 C39.4103119,73.989744 39.0464059,72.9679688 38.6814862,72.4570813 L35.3961954,66.6183664 C35.1042597,66.0344949 34.8863215,65.5955776 34.8863215,65.0127198 C34.8863215,63.626025 35.9810806,62.531266 37.3677754,62.531266 L38.6074886,62.531266 C38.6074886,62.531266 35.907083,60.1227961 35.5431769,60.1227961 C35.1042597,60.1227961 35.1782573,61.7284427 33.6455946,61.7284427 Z M22.8436679,50.4889165 C24.1573788,50.4889165 25.2521378,51.6556458 25.2521378,53.0433543 C25.2521378,53.8461776 24.6682663,54.5750033 24.6682663,54.8679527 C24.6682663,55.2328723 28.0255274,54.2110972 28.0255274,53.9191615 C28.0255274,53.77218 27.5146399,53.2623061 27.5146399,51.9475815 C27.5146399,50.4889165 28.6093989,49.9780289 30.0690776,49.9780289 C30.2880294,49.9780289 29.4852061,46.1828642 29.1202865,46.1828642 C28.7553668,46.1828642 28.1714953,49.3941574 26.4198808,49.3941574 C24.8882318,49.3941574 24.8882318,47.7155269 24.5222985,47.7155269 C24.1573788,47.7155269 21.6769386,50.4889165 22.0408446,50.4889165 L22.8436679,50.4889165 Z M26.6394408,46.5476826 C26.1285533,46.5476826 25.6906497,46.9855862 25.6906497,47.4964737 C25.6906497,48.0803452 26.1285533,48.5182488 26.6394408,48.5182488 C27.2233123,48.5182488 27.6602023,48.0803452 27.6602023,47.4964737 C27.6602023,46.9855862 27.2233123,46.5476826 26.6394408,46.5476826 Z M36.7103117,50.4889165 C38.0250362,50.4889165 39.1197953,51.6556458 39.1197953,53.0433543 C39.1197953,53.8461776 38.5359238,54.5750033 38.5359238,54.8679527 C38.5359238,55.2328723 41.8921712,54.2110972 41.8921712,53.9191615 C41.8921712,53.77218 41.3812836,53.2623061 41.3812836,51.9475815 C41.3812836,50.4889165 42.4760427,49.9780289 43.9367351,49.9780289 C44.1556869,49.9780289 43.3528636,46.1828642 42.9869302,46.1828642 C42.6220106,46.1828642 42.0391527,49.3941574 40.2865246,49.3941574 C38.7548756,49.3941574 38.8278595,47.7155269 38.3889423,47.7155269 C38.0250362,47.7155269 35.5435824,50.4889165 35.9074884,50.4889165 L36.7103117,50.4889165 Z M43.2062875,50.7072601 C42.622416,50.7072601 42.1845124,51.1451637 42.1845124,51.6560513 C42.1845124,52.2399228 42.622416,52.6778264 43.2062875,52.6778264 C43.7171751,52.6778264 44.1550787,52.2399228 44.1550787,51.6560513 C44.1550787,51.1451637 43.7171751,50.7072601 43.2062875,50.7072601 Z M15.326728,25.8202447 C14.8158404,25.8202447 14.3779368,26.2581483 14.3779368,26.8420198 C14.3779368,27.3529073 14.8158404,27.790811 15.326728,27.790811 C15.9105995,27.790811 16.3474894,27.3529073 16.3474894,26.8420198 C16.3474894,26.2581483 15.9105995,25.8202447 15.326728,25.8202447 Z M22.8436679,25.5284103 C24.1573788,25.5284103 25.2521378,26.6961533 25.2521378,28.0828481 C25.2521378,28.8856714 24.6682663,29.6144971 24.6682663,29.9064328 C24.6682663,30.3453501 28.0255274,29.250591 28.0255274,28.9586553 C28.0255274,28.8856714 27.5146399,28.3017999 27.5146399,26.988089 C27.5146399,25.5284103 28.6093989,25.0175227 30.0690776,25.0175227 C30.2880294,25.0175227 29.4852061,21.2943283 29.1202865,21.2943283 C28.7553668,21.2943283 28.1714953,24.4336512 26.4198808,24.4336512 C24.8882318,24.4336512 24.8882318,22.8280047 24.5222985,22.8280047 C24.1573788,22.8280047 21.6769386,25.5284103 22.0408446,25.5284103 L22.8436679,25.5284103 Z M26.2741157,21.5861627 C25.7632281,21.5861627 25.3253245,22.02508 25.3253245,22.5359675 C25.3253245,23.119839 25.7632281,23.5577426 26.2741157,23.5577426 C26.8579872,23.5577426 27.2958908,23.119839 27.2958908,22.5359675 C27.2958908,22.02508 26.8579872,21.5861627 26.2741157,21.5861627 Z M36.7103117,25.5284103 C38.0250362,25.5284103 39.1197953,26.6961533 39.1197953,28.0828481 C39.1197953,28.8856714 38.5359238,29.6144971 38.5359238,29.9064328 C38.5359238,30.3453501 41.8921712,29.250591 41.8921712,28.9586553 C41.8921712,28.8856714 41.3812836,28.3017999 41.3812836,26.988089 C41.3812836,25.5284103 42.4760427,25.0175227 43.9367351,25.0175227 C44.1556869,25.0175227 43.3528636,21.2943283 42.9869302,21.2943283 C42.6220106,21.2943283 42.0391527,24.4336512 40.2865246,24.4336512 C38.7548756,24.4336512 38.8278595,22.8280047 38.3889423,22.8280047 C38.0250362,22.8280047 35.5435824,25.5284103 35.9074884,25.5284103 L36.7103117,25.5284103 Z M43.2062875,25.7467539 C42.622416,25.7467539 42.1845124,26.1856712 42.1845124,26.6965587 C42.1845124,27.2064326 42.622416,27.6453499 43.2062875,27.6453499 C43.7171751,27.6453499 44.1550787,27.2064326 44.1550787,26.6965587 C44.1550787,26.1856712 43.7171751,25.7467539 43.2062875,25.7467539 Z M54.2269633,21.6593494 C53.6430918,21.6593494 53.2051882,22.097253 53.2051882,22.6091542 C53.2051882,23.1200418 53.6430918,23.5579454 54.2269633,23.5579454 C54.7378508,23.5579454 55.1757544,23.1200418 55.1757544,22.6091542 C55.1757544,22.097253 54.7378508,21.6593494 54.2269633,21.6593494 Z M51.0887554,38.0814446 L51.8915787,38.0814446 C52.2564983,38.0814446 49.7750445,35.381039 49.3361272,35.381039 C48.9722212,35.381039 49.0452052,36.9866855 47.4385449,36.9866855 C45.6879441,36.9866855 45.1040726,33.8483763 44.8121369,33.8483763 C44.4472172,33.8483763 43.5714099,37.570557 43.7903617,37.570557 C45.2500405,37.570557 46.3447995,38.0814446 46.3447995,39.5401097 C46.3447995,40.8548342 45.8328983,41.4387057 45.8328983,41.5116896 C45.8328983,41.8036253 49.191173,42.8254004 49.191173,42.4604808 C49.191173,42.168545 48.6802855,41.4387057 48.6802855,40.6358824 C48.6802855,39.2491876 49.7020606,38.0814446 51.0887554,38.0814446 Z M47.5856278,34.1402107 C47.0017563,34.1402107 46.5638527,34.5781143 46.5638527,35.0890018 C46.5638527,35.6728733 47.0017563,36.1117906 47.5856278,36.1117906 C48.0965153,36.1117906 48.5334053,35.6728733 48.5334053,35.0890018 C48.5334053,34.5781143 48.0965153,34.1402107 47.5856278,34.1402107 Z M37.2218075,38.0814446 L37.9516468,38.0814446 C38.3895505,38.0814446 35.907083,35.381039 35.470193,35.381039 C35.1042597,35.381039 35.1782573,36.9866855 33.5726107,36.9866855 C31.8209962,36.9866855 31.2371247,33.8483763 30.945189,33.8483763 C30.5802693,33.8483763 29.704462,37.570557 29.9234139,37.570557 C31.3830926,37.570557 32.4778516,38.0814446 32.4778516,39.5401097 C32.4778516,40.8548342 31.9669641,41.4387057 31.9669641,41.5116896 C31.9669641,41.8036253 35.3242251,42.8254004 35.3242251,42.4604808 C35.3242251,42.168545 34.8133376,41.4387057 34.8133376,40.6358824 C34.8133376,39.2491876 35.8351127,38.0814446 37.2218075,38.0814446 Z M30.8720023,38.446567 C30.2881308,38.446567 29.8502272,38.8844706 29.8502272,39.4683421 C29.8502272,39.9792297 30.2881308,40.4171333 30.8720023,40.4171333 C31.3828898,40.4171333 31.8207935,39.9792297 31.8207935,39.4683421 C31.8207935,38.8844706 31.3828898,38.446567 30.8720023,38.446567 Z M23.35415,38.0814446 L24.0850031,38.0814446 C24.5229067,38.0814446 22.0404392,35.381039 21.6035492,35.381039 C21.2376159,35.381039 21.3116135,36.9866855 19.7059669,36.9866855 C17.9533387,36.9866855 17.3704809,33.8483763 17.0055612,33.8483763 C16.7136255,33.8483763 15.8368046,37.570557 16.0557564,37.570557 C17.5164488,37.570557 18.6112078,38.0814446 18.6112078,39.5401097 C18.6112078,40.8548342 18.1003203,41.4387057 18.1003203,41.5116896 C18.1003203,41.8036253 21.4565677,42.8254004 21.4565677,42.4604808 C21.4565677,42.168545 20.8737099,41.4387057 20.8737099,40.6358824 C20.8737099,39.2491876 21.9674552,38.0814446 23.35415,38.0814446 Z M19.5593908,34.1402107 C18.976533,34.1402107 18.5376157,34.5781143 18.5376157,35.0890018 C18.5376157,35.6728733 18.976533,36.1117906 19.5593908,36.1117906 C20.0702784,36.1117906 20.508182,35.6728733 20.508182,35.0890018 C20.508182,34.5781143 20.0702784,34.1402107 19.5593908,34.1402107 Z M33.4995254,58.8809541 C32.9886378,58.8809541 32.5507342,59.3198714 32.5507342,59.830759 C32.5507342,60.3416465 32.9886378,60.7795501 33.4995254,60.7795501 C34.0104129,60.7795501 34.4483165,60.3416465 34.4483165,59.830759 C34.4483165,59.3198714 34.0104129,58.8809541 33.4995254,58.8809541 Z" id="Combined-Shape" fill="#EC1C24" fill-rule="nonzero"></path>
            <g id="Group-5" transform="translate(27.000000, 0.000000)">
                <polygon id="Clip-4" points="0.515248062 0.568005466 11.9727124 0.568005466 11.9727124 12.026078 0.515248062 12.026078"></polygon>
                <path d="M4.31041275,10.4934153 L1.02613562,4.65470043 C0.734199871,4.07082894 0.515248062,3.63292532 0.515248062,3.04905383 C0.515248062,1.66235904 1.61000711,0.5676 2.99670189,0.5676 L9.49125855,0.5676 C10.8779533,0.5676 11.9727124,1.66235904 11.9727124,3.04905383 C11.9727124,3.63292532 11.7547742,4.07082894 11.3888409,4.65470043 L8.10456376,10.4934153 C7.81364169,11.0043029 7.448722,12.026078 6.20799509,12.026078 C5.04025211,12.026078 4.67431876,11.0043029 4.31041275,10.4934153 Z" id="Fill-3" fill="#00A551" fill-rule="nonzero"></path>
            </g>
            <path d="M82.7633,32.2339 L82.7633,30.6679 C82.7633,29.4149 82.0333,28.8919 80.6743,28.8919 C79.0033,28.8919 78.0633,29.4149 78.0633,31.2949 C78.0633,32.7559 78.0633,32.8619 79.6303,34.1149 L80.0473,34.5329 C81.0923,35.3679 81.1973,35.5769 81.1973,36.6219 C81.1973,37.4579 81.0923,37.7699 80.4653,37.7699 C80.0473,37.7699 79.7353,37.5609 79.7353,36.9339 L79.7353,35.5769 L78.0633,35.5769 L78.0633,37.0399 C78.0633,38.5019 78.7943,39.0239 80.2563,39.0239 C82.2423,39.0239 82.8673,38.2929 82.8673,36.4129 C82.8673,34.9499 82.6593,34.5329 81.1973,33.2789 C79.9443,32.1299 79.8383,32.1299 79.8383,31.0859 C79.8383,30.3539 79.9443,30.1459 80.4653,30.1459 C80.9883,30.1459 81.0923,30.4599 81.0923,31.1899 L81.0923,32.2339 L82.7633,32.2339 Z" id="Fill-40" fill="#00A551" fill-rule="nonzero"></path>
            <path d="M85.0611,37.6656 C85.0611,38.5016 85.5831,38.9196 87.1501,38.9196 L88.2981,38.9196 L88.2981,37.5616 C88.1951,37.6656 88.0891,37.6656 87.8801,37.6656 C87.2541,37.6656 86.9411,37.4576 86.9411,36.7256 L86.9411,30.2496 L88.0891,30.2496 L88.0891,28.9966 L86.9411,28.9966 L86.9411,26.3856 L85.0611,27.1166 L85.0611,28.9966 L84.1221,28.9966 L84.1221,30.2496 L85.0611,30.2496 L85.0611,37.6656 Z" id="Fill-42" fill="#00A551" fill-rule="nonzero"></path>
            <path d="M90.0748,38.9195 L91.8498,38.9195 L91.8498,32.0255 C91.8498,30.9815 92.5818,30.6675 93.5208,30.6675 L93.5208,28.8925 C92.5818,28.8925 92.2668,29.1015 91.8498,30.0415 L91.7458,30.0415 L91.7458,28.9965 L90.0748,28.9965 L90.0748,38.9195 Z" id="Fill-44" fill="#00A551" fill-rule="nonzero"></path>
            <path d="M97.4898,32.7564 C96.1318,32.7564 95.8188,32.9654 95.4008,33.3834 C94.8798,33.9054 94.7738,34.3234 94.7738,36.3074 C94.7738,38.7094 95.5058,39.0244 96.5498,39.0244 C96.8628,39.0244 97.1768,39.0244 97.4898,38.8154 L97.4898,37.7704 L97.3858,37.7704 C96.7588,37.7704 96.6548,37.5614 96.6548,36.0984 C96.6548,34.6364 96.8628,34.1144 97.4898,34.0104 L97.4898,32.7564 Z M94.8798,31.9214 L96.7588,31.9214 L96.7588,30.9814 C96.7588,30.4594 96.9678,30.1464 97.4898,30.1464 L97.4898,28.8924 C95.7148,28.8924 94.8798,29.5194 94.8798,30.9814 L94.8798,31.9214 Z M97.4898,30.1464 L97.5938,30.1464 C98.2198,30.1464 98.3258,30.5644 98.3258,31.0854 L98.3258,32.7564 L97.4898,32.7564 L97.4898,34.0104 L97.6988,34.0104 L98.3258,34.0104 L98.3258,36.6214 C98.3258,37.2474 98.0118,37.6654 97.4898,37.7704 L97.4898,38.8154 C97.5938,38.7094 97.8028,38.6054 97.9078,38.5014 C98.1168,38.2924 98.2198,38.0834 98.4288,37.8744 L98.4288,38.9194 L100.2058,38.9194 L100.2058,31.2944 C100.2058,29.5194 99.2648,28.8924 97.5938,28.8924 L97.4898,28.8924 L97.4898,30.1464 Z" id="Fill-46" fill="#00A551" fill-rule="nonzero"></path>
            <polygon id="Fill-48" fill="#00A551" fill-rule="nonzero" points="103.5474 38.9195 105.6364 38.9195 106.9944 31.1905 108.0384 38.9195 110.1274 38.9195 112.1114 28.9965 110.2324 28.9965 109.1874 36.7255 108.0384 28.9965 105.9494 28.9965 104.8004 36.7255 104.6964 36.7255 103.7564 28.9965 101.7724 28.9965"></polygon>
            <path d="M116.3941,37.8745 L116.3941,37.8745 C116.0811,37.8745 115.6641,37.5615 115.6641,36.8305 L115.6641,31.8165 C115.6641,30.5635 115.9761,30.2495 116.3941,30.1455 L116.3941,28.9965 C116.0811,29.2055 115.8731,29.4145 115.6641,29.7285 L115.6641,24.6105 L113.7831,24.6105 L113.7831,38.9195 L115.5581,38.9195 L115.5581,38.1875 C115.7671,38.5015 116.0811,38.7095 116.3941,38.9195 L116.3941,37.8745 Z M117.2291,36.4125 C117.2291,37.5615 116.9161,37.8745 116.3941,37.8745 L116.3941,38.9195 C116.7071,39.0235 117.0211,39.0235 117.3341,39.0235 C118.4831,39.0235 119.1101,38.1875 119.1101,36.7255 L119.1101,31.1895 C119.1101,29.7285 118.4831,28.8925 117.3341,28.8925 C117.0211,28.8925 116.7071,28.8925 116.3941,28.9965 L116.3941,30.1455 L116.4981,30.1455 C116.9161,30.1455 117.2291,30.4595 117.2291,31.5035 L117.2291,36.4125 Z" id="Fill-50" fill="#00A551" fill-rule="nonzero"></path>
            <path d="M121.1988,36.6216 C121.1988,38.3956 122.4518,39.0236 123.8088,39.0236 L123.9148,39.0236 L123.9148,37.8746 C123.3908,37.8746 123.0788,37.5606 123.0788,36.7256 L123.0788,34.5326 L123.9148,34.5326 L123.9148,33.2786 L123.0788,33.2786 L123.0788,31.0856 C123.0788,30.4596 123.2878,30.0416 123.9148,30.0416 L123.9148,28.8926 C122.1378,28.8926 121.1988,29.8326 121.1988,31.5036 L121.1988,36.6216 Z M123.9148,34.5326 L126.6298,34.5326 L126.6298,31.2946 C126.6298,29.5186 125.3768,28.8926 123.9148,28.8926 L123.9148,30.0416 L124.0178,30.0416 C124.6448,30.0416 124.8538,30.3536 124.8538,31.2946 L124.8538,33.2786 L123.9148,33.2786 L123.9148,34.5326 Z M123.9148,39.0236 C125.8978,39.0236 126.6298,38.0836 126.6298,37.0396 L126.6298,35.6816 L124.8538,35.6816 L124.8538,36.6216 C124.8538,37.3516 124.6448,37.8746 124.0178,37.8746 L123.9148,37.8746 L123.9148,39.0236 Z" id="Fill-52" fill="#00A551" fill-rule="nonzero"></path>
            <path d="M128.3013,38.9195 L130.1803,38.9195 L130.1803,32.0255 C130.1803,30.9815 130.9113,30.6675 131.7473,30.6675 L131.7473,28.8925 C130.9113,28.8925 130.5983,29.1015 130.0763,30.0415 L130.0763,28.9965 L128.3013,28.9965 L128.3013,38.9195 Z" id="Fill-54" fill="#00A551" fill-rule="nonzero"></path>
            <path d="M133.2095,38.9195 L135.0895,38.9195 L135.0895,32.0255 C135.0895,30.9815 135.7165,30.6675 136.6555,30.6675 L136.6555,28.8925 C135.8205,28.8925 135.5075,29.1015 134.9845,30.0415 L134.9845,28.9965 L133.2095,28.9965 L133.2095,38.9195 Z" id="Fill-56" fill="#00A551" fill-rule="nonzero"></path>
            <polygon id="Fill-58" fill="#00A551" fill-rule="nonzero" points="139.8941 38.815 138.9541 42.575 140.7291 42.575 143.9671 28.997 142.0871 28.997 140.8341 36.204 139.5811 28.997 137.5961 28.997"></polygon>
            <path d="M150.3384,38.9195 L152.2184,38.9195 L152.2184,30.2495 L153.3664,30.2495 L153.3664,28.9965 L152.2184,28.9965 L152.2184,26.9085 C152.2184,26.2815 152.5314,26.0725 153.0544,26.0725 L153.3664,26.0725 L153.3664,24.6105 L152.7404,24.6105 C150.7564,24.6105 150.3384,25.2365 150.3384,26.5945 L150.3384,28.9965 L149.3984,28.9965 L149.3984,30.2495 L150.3384,30.2495 L150.3384,38.9195 Z" id="Fill-60" fill="#00A551" fill-rule="nonzero"></path>
            <path d="M154.934,26.594 L156.814,26.594 L156.814,24.611 L154.934,24.611 L154.934,26.594 Z M154.934,38.919 L156.814,38.919 L156.814,28.996 L154.934,28.996 L154.934,38.919 Z" id="Fill-62" fill="#00A551" fill-rule="nonzero"></path>
            <path d="M159.0074,36.6216 C159.0074,38.3956 160.2604,39.0236 161.7234,39.0236 L161.8264,39.0236 L161.8264,37.8746 C161.1994,37.8746 160.8874,37.5606 160.8874,36.7256 L160.8874,34.5326 L161.8264,34.5326 L161.8264,33.2786 L160.8874,33.2786 L160.8874,31.0856 C160.8874,30.4596 161.0964,30.0416 161.8264,30.0416 L161.8264,28.8926 L161.7234,28.8926 C160.0514,28.8926 159.0074,29.8326 159.0074,31.5036 L159.0074,36.6216 Z M161.8264,34.5326 L164.3324,34.5326 L164.3324,31.2946 C164.3324,29.5186 163.1844,28.8926 161.8264,28.8926 L161.8264,30.0416 C162.3494,30.0416 162.5584,30.3536 162.5584,31.2946 L162.5584,33.2786 L161.8264,33.2786 L161.8264,34.5326 Z M161.8264,39.0236 C163.7064,39.0236 164.3324,38.0836 164.3324,37.0396 L164.3324,35.6816 L162.5584,35.6816 L162.5584,36.6216 C162.5584,37.3516 162.4534,37.8746 161.8264,37.8746 L161.8264,39.0236 Z" id="Fill-64" fill="#00A551" fill-rule="nonzero"></path>
            <polygon id="Fill-65" fill="#00A551" fill-rule="nonzero" points="166.527 38.919 168.407 38.919 168.407 24.61 166.527 24.61"></polygon>
            <path d="M172.481,31.5034 C172.481,30.4594 172.794,30.1464 173.212,30.1464 L173.316,30.1464 L173.316,28.9964 C173.002,28.8924 172.689,28.8924 172.377,28.8924 C171.333,28.8924 170.6,29.7284 170.6,31.1904 L170.6,36.7254 C170.6,38.1884 171.333,39.0244 172.377,39.0244 C172.689,39.0244 173.002,39.0244 173.316,38.9194 L173.316,37.8744 C172.794,37.8744 172.481,37.5614 172.481,36.4124 L172.481,31.5034 Z M173.316,30.1464 C173.733,30.2494 174.046,30.5644 174.046,31.8164 L174.046,36.8304 C174.046,37.5614 173.733,37.8744 173.316,37.8744 L173.316,38.9194 C173.316,38.9194 173.316,38.8154 173.42,38.8154 C173.733,38.7094 173.943,38.5014 174.151,38.1884 L174.254,38.1884 L174.254,38.9194 L175.926,38.9194 L175.926,24.6104 L174.046,24.6104 L174.046,29.7284 C173.838,29.4144 173.628,29.2054 173.316,28.9964 L173.316,30.1464 Z" id="Fill-66" fill="#00A551" fill-rule="nonzero"></path>
            <path d="M182.7144,32.2339 L182.7144,30.6679 C182.7144,29.4149 181.9844,28.8919 180.6264,28.8919 C178.9544,28.8919 178.0164,29.4149 178.0164,31.2949 C178.0164,32.7559 178.0164,32.8619 179.5824,34.1149 L180.0004,34.5329 C181.0444,35.3679 181.1494,35.5769 181.1494,36.6219 C181.1494,37.4579 181.0444,37.7699 180.4164,37.7699 C180.0004,37.7699 179.6864,37.5609 179.6864,36.9339 L179.6864,35.5769 L177.9104,35.5769 L177.9104,37.0399 C177.9104,38.5019 178.7464,39.0239 180.2084,39.0239 C182.1934,39.0239 182.8194,38.2929 182.8194,36.4129 C182.8194,34.9499 182.6104,34.5329 181.1494,33.2789 C179.8964,32.1299 179.7904,32.1299 179.7904,31.0859 C179.7904,30.3539 179.8964,30.1459 180.4164,30.1459 C180.9414,30.1459 181.0444,30.4599 181.0444,31.1899 L181.0444,32.2339 L182.7144,32.2339 Z" id="Fill-67" fill="#00A551" fill-rule="nonzero"></path>
            <path d="M80.2829622,49.6891691 L80.2829622,51.6735034 L80.2829622,52.0682802 C80.2945732,52.718501 80.5140227,52.9158894 81.1990767,52.9158894 L81.245521,52.9158894 L81.245521,53.1365 L78.3323,53.1365 L78.3323,52.9158894 L78.3915165,52.9158894 C79.0754094,52.9158894 79.29602,52.718501 79.3076311,52.0682802 L79.3076311,51.6735034 L79.3076311,47.3913355 L79.3076311,46.9977198 C79.29602,46.3591101 79.1218537,46.1849439 78.471633,46.1384995 L78.471633,45.9295 L81.23391,45.9295 L81.23391,46.1384995 L81.1990767,46.1384995 C80.5024116,46.1384995 80.2945732,46.347499 80.2829622,46.9977198 L80.2829622,47.3913355 L80.2829622,49.2943922 L84.8194128,49.2943922 L84.8194128,47.3913355 L84.8194128,46.9977198 C84.8078017,46.347499 84.5883522,46.1384995 83.8916871,46.1384995 L83.6826876,46.1384995 L83.6826876,45.9295 L86.6771863,45.9295 L86.6771863,46.1384995 C85.9921323,46.1733328 85.7947439,46.347499 85.7947439,46.9977198 L85.7831328,47.3913355 L85.7831328,51.6735034 L85.7947439,52.0682802 C85.7947439,52.718501 86.0153545,52.9158894 86.7120195,52.9158894 L86.8281304,52.9158894 L86.8281304,53.1365 L83.5549657,53.1365 L83.5549657,52.9158894 L83.8916871,52.9158894 C84.5883522,52.9158894 84.8078017,52.718501 84.8194128,52.0682802 L84.8194128,51.6735034 L84.8194128,49.6891691 L80.2829622,49.6891691 Z" id="Fill-68" fill="#EC1C24" fill-rule="nonzero"></path>
            <path d="M80.2829622,49.6891691 L80.2829622,51.6735034 L80.2829622,52.0682802 C80.2945732,52.718501 80.5140227,52.9158894 81.1990767,52.9158894 L81.245521,52.9158894 L81.245521,53.1365 L78.3323,53.1365 L78.3323,52.9158894 L78.3915165,52.9158894 C79.0754094,52.9158894 79.29602,52.718501 79.3076311,52.0682802 L79.3076311,51.6735034 L79.3076311,47.3913355 L79.3076311,46.9977198 C79.29602,46.3591101 79.1218537,46.1849439 78.471633,46.1384995 L78.471633,45.9295 L81.23391,45.9295 L81.23391,46.1384995 L81.1990767,46.1384995 C80.5024116,46.1384995 80.2945732,46.347499 80.2829622,46.9977198 L80.2829622,47.3913355 L80.2829622,49.2943922 L84.8194128,49.2943922 L84.8194128,47.3913355 L84.8194128,46.9977198 C84.8078017,46.347499 84.5883522,46.1384995 83.8916871,46.1384995 L83.6826876,46.1384995 L83.6826876,45.9295 L86.6771863,45.9295 L86.6771863,46.1384995 C85.9921323,46.1733328 85.7947439,46.347499 85.7947439,46.9977198 L85.7831328,47.3913355 L85.7831328,51.6735034 L85.7947439,52.0682802 C85.7947439,52.718501 86.0153545,52.9158894 86.7120195,52.9158894 L86.8281304,52.9158894 L86.8281304,53.1365 L83.5549657,53.1365 L83.5549657,52.9158894 L83.8916871,52.9158894 C84.5883522,52.9158894 84.8078017,52.718501 84.8194128,52.0682802 L84.8194128,51.6735034 L84.8194128,49.6891691 L80.2829622,49.6891691 Z" id="Stroke-69" stroke="#EC1C24" stroke-width="0.216"></path>
            <path d="M91.6536324,53.1363 L88.8333,53.1363 L88.8333,52.9168505 C89.5055818,52.8808561 89.6925202,52.7066899 89.6925202,52.0680802 L89.7029702,51.6733034 L89.7029702,47.3922966 L89.6925202,46.9975198 C89.6925202,46.3589101 89.5055818,46.1731328 88.8333,46.1394606 L88.8333,45.9293 L91.6536324,45.9293 L91.6536324,46.1394606 L91.5944158,46.1394606 C90.7944121,46.1394606 90.6666902,46.3124658 90.6666902,47.3922966 L90.6666902,51.6733034 L90.6666902,52.0680802 C90.6783013,52.7194621 90.8989119,52.9168505 91.5944158,52.9168505 L91.6536324,52.9168505 L91.6536324,53.1363 Z" id="Fill-70" fill="#EC1C24" fill-rule="nonzero"></path>
            <path d="M91.6536324,53.1363 L88.8333,53.1363 L88.8333,52.9168505 C89.5055818,52.8808561 89.6925202,52.7066899 89.6925202,52.0680802 L89.7029702,51.6733034 L89.7029702,47.3922966 L89.6925202,46.9975198 C89.6925202,46.3589101 89.5055818,46.1731328 88.8333,46.1394606 L88.8333,45.9293 L91.6536324,45.9293 L91.6536324,46.1394606 L91.5944158,46.1394606 C90.7944121,46.1394606 90.6666902,46.3124658 90.6666902,47.3922966 L90.6666902,51.6733034 L90.6666902,52.0680802 C90.6783013,52.7194621 90.8989119,52.9168505 91.5944158,52.9168505 L91.6536324,52.9168505 L91.6536324,53.1363 Z" id="Stroke-71" stroke="#EC1C24" stroke-width="0.216"></path>
            <path d="M101.194875,47.9481132 C100.952701,46.7257109 100.12239,46.0349382 98.8896091,46.0349382 C96.9764342,46.0349382 95.7540319,47.4176367 95.7540319,49.5845178 C95.7540319,51.5899496 96.9983452,53.0083976 98.751224,53.0083976 C99.3162968,53.0083976 99.9840052,52.8342629 100.514482,52.5701779 L100.514482,51.4861607 L100.514482,51.0952226 C100.50295,50.4494251 100.28384,50.2533795 99.5919139,50.2533795 L99.1663795,50.2533795 L99.1663795,50.0342696 L102.277739,50.0342696 L102.277739,50.2418474 C101.679224,50.2649116 101.470493,50.4840214 101.470493,51.0836905 L101.470493,51.4861607 L101.470493,52.5701779 C100.768188,52.9622692 99.3739572,53.2967 98.393729,53.2967 C96.249912,53.2967 94.6827,51.7640843 94.6827,49.6652425 C94.6827,48.5708465 95.1324518,47.5098935 95.9154812,46.7833714 C96.6650676,46.0810666 97.5403537,45.7697 98.7050956,45.7697 C99.3036114,45.7697 99.823709,45.8504247 100.642488,46.0925987 C100.848913,46.149106 100.929637,46.1617913 101.010362,46.1617913 C101.137215,46.1617913 101.194875,46.1387271 101.264068,46.0810666 L101.424364,46.0810666 L101.424364,47.9481132 L101.194875,47.9481132 Z" id="Fill-72" fill="#EC1C24" fill-rule="nonzero"></path>
            <path d="M101.194875,47.9481132 C100.952701,46.7257109 100.12239,46.0349382 98.8896091,46.0349382 C96.9764342,46.0349382 95.7540319,47.4176367 95.7540319,49.5845178 C95.7540319,51.5899496 96.9983452,53.0083976 98.751224,53.0083976 C99.3162968,53.0083976 99.9840052,52.8342629 100.514482,52.5701779 L100.514482,51.4861607 L100.514482,51.0952226 C100.50295,50.4494251 100.28384,50.2533795 99.5919139,50.2533795 L99.1663795,50.2533795 L99.1663795,50.0342696 L102.277739,50.0342696 L102.277739,50.2418474 C101.679224,50.2649116 101.470493,50.4840214 101.470493,51.0836905 L101.470493,51.4861607 L101.470493,52.5701779 C100.768188,52.9622692 99.3739572,53.2967 98.393729,53.2967 C96.249912,53.2967 94.6827,51.7640843 94.6827,49.6652425 C94.6827,48.5708465 95.1324518,47.5098935 95.9154812,46.7833714 C96.6650676,46.0810666 97.5403537,45.7697 98.7050956,45.7697 C99.3036114,45.7697 99.823709,45.8504247 100.642488,46.0925987 C100.848913,46.149106 100.929637,46.1617913 101.010362,46.1617913 C101.137215,46.1617913 101.194875,46.1387271 101.264068,46.0810666 L101.424364,46.0810666 L101.424364,47.9481132 L101.194875,47.9481132 Z" id="Stroke-73" stroke="#EC1C24" stroke-width="0.216"></path>
            <path d="M106.132562,49.6891691 L106.132562,51.6735034 L106.132562,52.0682802 C106.144173,52.718501 106.363623,52.9158894 107.048677,52.9158894 L107.095121,52.9158894 L107.095121,53.1365 L104.1819,53.1365 L104.1819,52.9158894 L104.241117,52.9158894 C104.925009,52.9158894 105.14562,52.718501 105.157231,52.0682802 L105.157231,51.6735034 L105.157231,47.3913355 L105.157231,46.9977198 C105.14562,46.3591101 104.971454,46.1849439 104.321233,46.1384995 L104.321233,45.9295 L107.08351,45.9295 L107.08351,46.1384995 L107.048677,46.1384995 C106.352012,46.1384995 106.144173,46.347499 106.132562,46.9977198 L106.132562,47.3913355 L106.132562,49.2943922 L110.669013,49.2943922 L110.669013,47.3913355 L110.669013,46.9977198 C110.657402,46.347499 110.437952,46.1384995 109.741287,46.1384995 L109.532288,46.1384995 L109.532288,45.9295 L112.526786,45.9295 L112.526786,46.1384995 C111.841732,46.1733328 111.644344,46.347499 111.644344,46.9977198 L111.632733,47.3913355 L111.632733,51.6735034 L111.644344,52.0682802 C111.644344,52.718501 111.864954,52.9158894 112.56162,52.9158894 L112.67773,52.9158894 L112.67773,53.1365 L109.404566,53.1365 L109.404566,52.9158894 L109.741287,52.9158894 C110.437952,52.9158894 110.657402,52.718501 110.669013,52.0682802 L110.669013,51.6735034 L110.669013,49.6891691 L106.132562,49.6891691 Z" id="Fill-74" fill="#EC1C24" fill-rule="nonzero"></path>
            <path d="M106.132562,49.6891691 L106.132562,51.6735034 L106.132562,52.0682802 C106.144173,52.718501 106.363623,52.9158894 107.048677,52.9158894 L107.095121,52.9158894 L107.095121,53.1365 L104.1819,53.1365 L104.1819,52.9158894 L104.241117,52.9158894 C104.925009,52.9158894 105.14562,52.718501 105.157231,52.0682802 L105.157231,51.6735034 L105.157231,47.3913355 L105.157231,46.9977198 C105.14562,46.3591101 104.971454,46.1849439 104.321233,46.1384995 L104.321233,45.9295 L107.08351,45.9295 L107.08351,46.1384995 L107.048677,46.1384995 C106.352012,46.1384995 106.144173,46.347499 106.132562,46.9977198 L106.132562,47.3913355 L106.132562,49.2943922 L110.669013,49.2943922 L110.669013,47.3913355 L110.669013,46.9977198 C110.657402,46.347499 110.437952,46.1384995 109.741287,46.1384995 L109.532288,46.1384995 L109.532288,45.9295 L112.526786,45.9295 L112.526786,46.1384995 C111.841732,46.1733328 111.644344,46.347499 111.644344,46.9977198 L111.632733,47.3913355 L111.632733,51.6735034 L111.644344,52.0682802 C111.644344,52.718501 111.864954,52.9158894 112.56162,52.9158894 L112.67773,52.9158894 L112.67773,53.1365 L109.404566,53.1365 L109.404566,52.9158894 L109.741287,52.9158894 C110.437952,52.9158894 110.657402,52.718501 110.669013,52.0682802 L110.669013,51.6735034 L110.669013,49.6891691 L106.132562,49.6891691 Z" id="Stroke-75" stroke="#EC1C24" stroke-width="0.216"></path>
            <path d="M120.07171,51.3593076 C120.279288,52.0166372 120.497244,52.351068 120.923932,52.6509025 C121.258363,52.8803913 121.592794,52.9841802 122.018328,52.9841802 C122.906299,52.9841802 123.609757,52.4087285 123.609757,51.6591422 C123.609757,51.3593076 123.482904,51.02603 123.286859,50.7953881 C123.125409,50.5993424 122.918985,50.4252077 122.676811,50.2649116 C122.538425,50.1726548 122.330848,50.0342696 122.054077,49.8612882 C121.294112,49.3769401 120.877803,49.0771055 120.556058,48.7784242 C120.140902,48.4082439 119.909107,47.9365811 119.909107,47.4418541 C119.909107,46.4731579 120.785547,45.7697 121.961821,45.7697 C122.353912,45.7697 122.676811,45.8158284 123.102345,45.9542136 C123.344519,46.0349382 123.448308,46.0580024 123.529033,46.0580024 C123.609757,46.0580024 123.655886,46.0349382 123.73661,45.9542136 L123.921124,45.9542136 L124.11717,47.4061046 L123.921124,47.4061046 C123.598225,46.5769468 122.860171,46.0349382 122.065609,46.0349382 C121.304491,46.0349382 120.774015,46.4835368 120.774015,47.1178022 C120.774015,47.4418541 120.948149,47.7866638 121.223766,48.0519021 C121.536286,48.3517366 121.615858,48.4082439 122.492297,48.9629378 C123.275327,49.4461327 123.609757,49.700992 123.932656,50.0342696 C124.290151,50.4032968 124.473511,50.8415165 124.473511,51.3258645 C124.473511,52.4548569 123.471372,53.2967 122.111738,53.2967 C121.754243,53.2967 121.385216,53.2263542 120.855892,53.0649048 C120.624097,53.0083976 120.56759,52.9841802 120.497244,52.9841802 C120.406141,52.9841802 120.347327,53.0303085 120.289666,53.1121864 L120.094774,53.1121864 L119.8526,51.3593076 L120.07171,51.3593076 Z" id="Fill-76" fill="#EC1C24" fill-rule="nonzero"></path>
            <path d="M120.07171,51.3593076 C120.279288,52.0166372 120.497244,52.351068 120.923932,52.6509025 C121.258363,52.8803913 121.592794,52.9841802 122.018328,52.9841802 C122.906299,52.9841802 123.609757,52.4087285 123.609757,51.6591422 C123.609757,51.3593076 123.482904,51.02603 123.286859,50.7953881 C123.125409,50.5993424 122.918985,50.4252077 122.676811,50.2649116 C122.538425,50.1726548 122.330848,50.0342696 122.054077,49.8612882 C121.294112,49.3769401 120.877803,49.0771055 120.556058,48.7784242 C120.140902,48.4082439 119.909107,47.9365811 119.909107,47.4418541 C119.909107,46.4731579 120.785547,45.7697 121.961821,45.7697 C122.353912,45.7697 122.676811,45.8158284 123.102345,45.9542136 C123.344519,46.0349382 123.448308,46.0580024 123.529033,46.0580024 C123.609757,46.0580024 123.655886,46.0349382 123.73661,45.9542136 L123.921124,45.9542136 L124.11717,47.4061046 L123.921124,47.4061046 C123.598225,46.5769468 122.860171,46.0349382 122.065609,46.0349382 C121.304491,46.0349382 120.774015,46.4835368 120.774015,47.1178022 C120.774015,47.4418541 120.948149,47.7866638 121.223766,48.0519021 C121.536286,48.3517366 121.615858,48.4082439 122.492297,48.9629378 C123.275327,49.4461327 123.609757,49.700992 123.932656,50.0342696 C124.290151,50.4032968 124.473511,50.8415165 124.473511,51.3258645 C124.473511,52.4548569 123.471372,53.2967 122.111738,53.2967 C121.754243,53.2967 121.385216,53.2263542 120.855892,53.0649048 C120.624097,53.0083976 120.56759,52.9841802 120.497244,52.9841802 C120.406141,52.9841802 120.347327,53.0303085 120.289666,53.1121864 L120.094774,53.1121864 L119.8526,51.3593076 L120.07171,51.3593076 Z" id="Stroke-77" stroke="#EC1C24" stroke-width="0.216"></path>
            <path d="M134.067013,47.8332342 C133.686446,46.7503482 132.638157,46.0341904 131.439948,46.0341904 C129.583243,46.0341904 128.315839,47.3834733 128.315839,49.3774135 C128.315839,51.4174831 129.733163,52.984727 131.589868,52.984727 C132.372914,52.984727 133.144427,52.697572 133.686446,52.213214 C133.98744,51.936438 134.10161,51.79805 134.378386,51.3021598 L134.609033,51.3021598 C134.459113,51.8211147 134.137361,52.5476516 133.859431,52.9974126 C133.75564,52.9731947 133.721043,52.9731947 133.628785,52.9731947 C133.456953,52.9731947 133.307033,52.9974126 133.064854,53.0435419 L132.626625,53.1461797 C132.211461,53.2384383 131.669441,53.2961 131.243898,53.2961 C128.914367,53.2961 127.2318,51.7507675 127.2318,49.6195925 C127.2318,47.3719409 128.960497,45.7701 131.369601,45.7701 C132.073073,45.7701 132.718884,45.8854233 133.410824,46.1379814 C133.628785,46.219861 133.709511,46.2302401 133.813302,46.2302401 C133.882496,46.2302401 133.928625,46.219861 134.009352,46.1621993 L134.18349,46.1621993 L134.286128,47.8332342 L134.067013,47.8332342 Z" id="Fill-78" fill="#EC1C24" fill-rule="nonzero"></path>
            <path d="M134.067013,47.8332342 C133.686446,46.7503482 132.638157,46.0341904 131.439948,46.0341904 C129.583243,46.0341904 128.315839,47.3834733 128.315839,49.3774135 C128.315839,51.4174831 129.733163,52.984727 131.589868,52.984727 C132.372914,52.984727 133.144427,52.697572 133.686446,52.213214 C133.98744,51.936438 134.10161,51.79805 134.378386,51.3021598 L134.609033,51.3021598 C134.459113,51.8211147 134.137361,52.5476516 133.859431,52.9974126 C133.75564,52.9731947 133.721043,52.9731947 133.628785,52.9731947 C133.456953,52.9731947 133.307033,52.9974126 133.064854,53.0435419 L132.626625,53.1461797 C132.211461,53.2384383 131.669441,53.2961 131.243898,53.2961 C128.914367,53.2961 127.2318,51.7507675 127.2318,49.6195925 C127.2318,47.3719409 128.960497,45.7701 131.369601,45.7701 C132.073073,45.7701 132.718884,45.8854233 133.410824,46.1379814 C133.628785,46.219861 133.709511,46.2302401 133.813302,46.2302401 C133.882496,46.2302401 133.928625,46.219861 134.009352,46.1621993 L134.18349,46.1621993 L134.286128,47.8332342 L134.067013,47.8332342 Z" id="Stroke-79" stroke="#EC1C24" stroke-width="0.216"></path>
            <path d="M138.622762,49.6891691 L138.622762,51.6735034 L138.622762,52.0682802 C138.634373,52.718501 138.853823,52.9158894 139.538877,52.9158894 L139.585321,52.9158894 L139.585321,53.1365 L136.6721,53.1365 L136.6721,52.9158894 L136.731317,52.9158894 C137.415209,52.9158894 137.63582,52.718501 137.647431,52.0682802 L137.647431,51.6735034 L137.647431,47.3913355 L137.647431,46.9977198 C137.63582,46.3591101 137.461654,46.1849439 136.811433,46.1384995 L136.811433,45.9295 L139.57371,45.9295 L139.57371,46.1384995 L139.538877,46.1384995 C138.842212,46.1384995 138.634373,46.347499 138.622762,46.9977198 L138.622762,47.3913355 L138.622762,49.2943922 L143.159213,49.2943922 L143.159213,47.3913355 L143.159213,46.9977198 C143.147602,46.347499 142.928152,46.1384995 142.231487,46.1384995 L142.022488,46.1384995 L142.022488,45.9295 L145.016986,45.9295 L145.016986,46.1384995 C144.331932,46.1733328 144.134544,46.347499 144.134544,46.9977198 L144.122933,47.3913355 L144.122933,51.6735034 L144.134544,52.0682802 C144.134544,52.718501 144.355154,52.9158894 145.05182,52.9158894 L145.16793,52.9158894 L145.16793,53.1365 L141.894766,53.1365 L141.894766,52.9158894 L142.231487,52.9158894 C142.928152,52.9158894 143.147602,52.718501 143.159213,52.0682802 L143.159213,51.6735034 L143.159213,49.6891691 L138.622762,49.6891691 Z" id="Fill-80" fill="#EC1C24" fill-rule="nonzero"></path>
            <path d="M138.622762,49.6891691 L138.622762,51.6735034 L138.622762,52.0682802 C138.634373,52.718501 138.853823,52.9158894 139.538877,52.9158894 L139.585321,52.9158894 L139.585321,53.1365 L136.6721,53.1365 L136.6721,52.9158894 L136.731317,52.9158894 C137.415209,52.9158894 137.63582,52.718501 137.647431,52.0682802 L137.647431,51.6735034 L137.647431,47.3913355 L137.647431,46.9977198 C137.63582,46.3591101 137.461654,46.1849439 136.811433,46.1384995 L136.811433,45.9295 L139.57371,45.9295 L139.57371,46.1384995 L139.538877,46.1384995 C138.842212,46.1384995 138.634373,46.347499 138.622762,46.9977198 L138.622762,47.3913355 L138.622762,49.2943922 L143.159213,49.2943922 L143.159213,47.3913355 L143.159213,46.9977198 C143.147602,46.347499 142.928152,46.1384995 142.231487,46.1384995 L142.022488,46.1384995 L142.022488,45.9295 L145.016986,45.9295 L145.016986,46.1384995 C144.331932,46.1733328 144.134544,46.347499 144.134544,46.9977198 L144.122933,47.3913355 L144.122933,51.6735034 L144.134544,52.0682802 C144.134544,52.718501 144.355154,52.9158894 145.05182,52.9158894 L145.16793,52.9158894 L145.16793,53.1365 L141.894766,53.1365 L141.894766,52.9158894 L142.231487,52.9158894 C142.928152,52.9158894 143.147602,52.718501 143.159213,52.0682802 L143.159213,51.6735034 L143.159213,49.6891691 L138.622762,49.6891691 Z" id="Stroke-81" stroke="#EC1C24" stroke-width="0.216"></path>
            <path d="M151.587836,53.019424 C152.543866,53.019424 153.224274,52.6734541 153.766294,51.9134734 C154.204522,51.3022598 154.422483,50.5526582 154.422483,49.7004188 C154.422483,47.5796229 153.028224,46.0342904 151.103478,46.0342904 C149.478572,46.0342904 148.325339,47.4285494 148.325339,49.3775135 C148.325339,51.4291154 149.742663,53.019424 151.587836,53.019424 M151.414851,45.7702 C153.766294,45.7702 155.505369,47.302847 155.505369,49.3659812 C155.505369,51.5790357 153.708632,53.2962 151.391786,53.2962 C149.040344,53.2962 147.2413,51.7174237 147.2413,49.6658218 C147.2413,47.4412349 149.028811,45.7702 151.414851,45.7702" id="Fill-82" fill="#EC1C24" fill-rule="nonzero"></path>
            <path d="M151.587836,53.019424 C152.543866,53.019424 153.224274,52.6734541 153.766294,51.9134734 C154.204522,51.3022598 154.422483,50.5526582 154.422483,49.7004188 C154.422483,47.5796229 153.028224,46.0342904 151.103478,46.0342904 C149.478572,46.0342904 148.325339,47.4285494 148.325339,49.3775135 C148.325339,51.4291154 149.742663,53.019424 151.587836,53.019424 Z M151.414851,45.7702 C153.766294,45.7702 155.505369,47.302847 155.505369,49.3659812 C155.505369,51.5790357 153.708632,53.2962 151.391786,53.2962 C149.040344,53.2962 147.2413,51.7174237 147.2413,49.6658218 C147.2413,47.4412349 149.028811,45.7702 151.414851,45.7702 Z" id="Stroke-83" stroke="#EC1C24" stroke-width="0.216"></path>
            <path d="M162.217736,53.019424 C163.173766,53.019424 163.854174,52.6734541 164.396194,51.9134734 C164.834422,51.3022598 165.052383,50.5526582 165.052383,49.7004188 C165.052383,47.5796229 163.658124,46.0342904 161.733378,46.0342904 C160.108472,46.0342904 158.955239,47.4285494 158.955239,49.3775135 C158.955239,51.4291154 160.372563,53.019424 162.217736,53.019424 M162.044751,45.7702 C164.396194,45.7702 166.135269,47.302847 166.135269,49.3659812 C166.135269,51.5790357 164.338532,53.2962 162.021686,53.2962 C159.670244,53.2962 157.8712,51.7174237 157.8712,49.6658218 C157.8712,47.4412349 159.658711,45.7702 162.044751,45.7702" id="Fill-84" fill="#EC1C24" fill-rule="nonzero"></path>
            <path d="M162.217736,53.019424 C163.173766,53.019424 163.854174,52.6734541 164.396194,51.9134734 C164.834422,51.3022598 165.052383,50.5526582 165.052383,49.7004188 C165.052383,47.5796229 163.658124,46.0342904 161.733378,46.0342904 C160.108472,46.0342904 158.955239,47.4285494 158.955239,49.3775135 C158.955239,51.4291154 160.372563,53.019424 162.217736,53.019424 Z M162.044751,45.7702 C164.396194,45.7702 166.135269,47.302847 166.135269,49.3659812 C166.135269,51.5790357 164.338532,53.2962 162.021686,53.2962 C159.670244,53.2962 157.8712,51.7174237 157.8712,49.6658218 C157.8712,47.4412349 159.658711,45.7702 162.044751,45.7702 Z" id="Stroke-85" stroke="#EC1C24" stroke-width="0.216"></path>
            <path d="M173.381144,53.1363 L168.1817,53.1363 L168.1817,52.9273005 L168.402311,52.9273005 C168.855143,52.9273005 169.017698,52.8924672 169.14542,52.7415231 C169.295203,52.5801291 169.295203,52.5325236 169.295203,51.6280202 L169.295203,47.3922966 L169.295203,46.9975198 C169.284753,46.347299 169.064142,46.1394606 168.367477,46.1394606 L168.216533,46.1394606 L168.216533,45.9293 L171.652253,45.9293 L171.652253,46.1394606 L171.501309,46.1499106 C171.430481,46.1499106 171.337593,46.1615217 171.211032,46.1615217 C170.352973,46.185905 170.270534,46.2544104 170.260084,46.89302 L170.260084,47.3342412 L170.260084,52.0460192 C170.260084,52.6834677 170.293756,52.7194621 170.851088,52.7194621 L172.150369,52.7194621 C173.009589,52.7194621 173.102478,52.6730177 173.683032,51.9299083 L174.053425,51.4422428 L174.262425,51.4422428 L173.381144,53.1363 Z" id="Fill-86" fill="#EC1C24" fill-rule="nonzero"></path>
            <path d="M173.381144,53.1363 L168.1817,53.1363 L168.1817,52.9273005 L168.402311,52.9273005 C168.855143,52.9273005 169.017698,52.8924672 169.14542,52.7415231 C169.295203,52.5801291 169.295203,52.5325236 169.295203,51.6280202 L169.295203,47.3922966 L169.295203,46.9975198 C169.284753,46.347299 169.064142,46.1394606 168.367477,46.1394606 L168.216533,46.1394606 L168.216533,45.9293 L171.652253,45.9293 L171.652253,46.1394606 L171.501309,46.1499106 C171.430481,46.1499106 171.337593,46.1615217 171.211032,46.1615217 C170.352973,46.185905 170.270534,46.2544104 170.260084,46.89302 L170.260084,47.3342412 L170.260084,52.0460192 C170.260084,52.6834677 170.293756,52.7194621 170.851088,52.7194621 L172.150369,52.7194621 C173.009589,52.7194621 173.102478,52.6730177 173.683032,51.9299083 L174.053425,51.4422428 L174.262425,51.4422428 L173.381144,53.1363 Z" id="Stroke-87" stroke="#EC1C24" stroke-width="0.216"></path>
        </g>
    </g>
</svg>